<svg id="Layer_1" data-name="Layer 1" xmlns="http://www.w3.org/2000/svg" viewBox="0 0 300 104.94"><title>Logo</title><polygon points="223.98 87.89 227.68 85.42 245.26 87.89 227.68 90.36 223.98 87.89" style="fill:#fff"/><polygon points="76.02 87.89 72.33 85.42 54.74 87.89 72.33 90.36 76.02 87.89" style="fill:#fff"/><path d="M247.53,104.94H52.47A52.47,52.47,0,0,1,52.47,0H247.53a52.47,52.47,0,0,1,0,104.94M52.47,3a49.51,49.51,0,0,0,0,99H247.53a49.51,49.51,0,0,0,0-99H52.47Z" style="fill:#fff"/><path d="M93.72,94.69H90V81.46h6.43a5,5,0,0,1,0,9.92H93.72v3.31Zm0-7h2.76a1.3,1.3,0,0,0,1.29-1.29,1.24,1.24,0,0,0-.38-0.91,1.22,1.22,0,0,0-.91-0.38H93.72v2.57Z" style="fill:#fff"/><polygon points="116.57 81.46 116.57 94.69 112.89 94.69 112.89 89.92 108.11 89.92 108.11 94.69 104.44 94.69 104.44 81.46 108.11 81.46 108.11 86.24 112.89 86.24 112.89 81.46 116.57 81.46" style="fill:#fff"/><path d="M129,81.46l5,13.23h-3.93l-0.7-1.84h-5.12l-0.72,1.84h-3.94l5.17-13.23H129Zm-3.29,7.72H128l-1.13-3Z" style="fill:#fff"/><path d="M140.67,94.69H137V81.46h6.43a5,5,0,0,1,5,5A5,5,0,0,1,146,90.67l2.39,4h-4.27l-2-3.31h-1.49v3.31Zm0-7h2.75a1.3,1.3,0,0,0,1.29-1.29,1.24,1.24,0,0,0-.38-0.91,1.22,1.22,0,0,0-.91-0.38h-2.75v2.57Z" style="fill:#fff"/><polygon points="165.35 81.46 165.35 94.69 161.67 94.69 161.67 88.02 158.37 92.75 155.06 88.02 155.06 94.69 151.39 94.69 151.39 81.46 154.95 81.46 158.37 86.34 161.78 81.46 165.35 81.46" style="fill:#fff"/><path d="M177.75,81.46l5,13.23h-3.93l-0.7-1.84H173l-0.72,1.84h-3.94l5.17-13.23h4.22Zm-3.29,7.72h2.29l-1.13-3Z" style="fill:#fff"/><path d="M190.55,94.69a6.61,6.61,0,1,1,4.67-11.28l-2.6,2.6a2.94,2.94,0,1,0,0,4.15l2.6,2.6a6.37,6.37,0,0,1-4.67,1.93" style="fill:#fff"/><polygon points="210.51 81.46 206.2 88.94 206.2 94.69 202.52 94.69 202.52 88.94 198.22 81.46 202.46 81.46 204.36 84.77 206.26 81.46 210.51 81.46" style="fill:#fff"/><path d="M24.54,43a0.7,0.7,0,0,1,0-1.12l3-3a27.86,27.86,0,0,1,8.09-16.54A27.55,27.55,0,0,1,55.82,14,27.46,27.46,0,0,1,76,22.28l-11.2,11.2a12.7,12.7,0,0,0-17.93,0,12.42,12.42,0,0,0-3.35,6l2.39,2.39a0.7,0.7,0,0,1,0,1.12l-2.39,2.39a12.42,12.42,0,0,0,3.35,6,12.7,12.7,0,0,0,17.93,0L76,62.56a27.46,27.46,0,0,1-20.16,8.33,27.55,27.55,0,0,1-20.16-8.33A27.89,27.89,0,0,1,27.57,46Z" style="fill:#fff"/><path d="M77.7,70.89A0.71,0.71,0,0,1,77,70.41a0.75,0.75,0,0,1,.16-0.87l3.15-3.15L89,44.15,87.78,43a0.7,0.7,0,0,1,0-1.12l3.43-3.43L99.54,17.1l-1.79-1.83a0.78,0.78,0,0,1,.56-1.35h22.59a0.78,0.78,0,0,1,.56,1.35l-1.39,1.43L128.51,39l2.87,2.87a0.7,0.7,0,0,1,0,1.12l-1,1L139,66.47l3.07,3.07a0.76,0.76,0,0,1,.16.87,0.72,0.72,0,0,1-.72.48h-19a0.72,0.72,0,0,1-.72-0.48,0.75,0.75,0,0,1,.16-0.87l0.92-.92L120.7,63H98.62l-2,5.06,1.51,1.52a0.69,0.69,0,0,1,.16.87,0.72,0.72,0,0,1-.72.48H77.7Zm27.1-23.75h9.88l-4.86-12.83Z" style="fill:#fff"/><path d="M150.94,66.15V45.91L148,43a0.7,0.7,0,0,1,0-1.12l2.91-2.95V18.65l-3.39-3.39a0.78,0.78,0,0,1-.16-0.88,0.72,0.72,0,0,1,.72-0.48h30.33a21,21,0,0,1,15.22,6.22A20.47,20.47,0,0,1,200,35.19a21.14,21.14,0,0,1-2.83,10.68,21.54,21.54,0,0,1-7.45,7.69l9.56,16.14a0.72,0.72,0,0,1,0,.8,0.7,0.7,0,0,1-.68.4h-20a0.75,0.75,0,0,1-.76-0.48,0.73,0.73,0,0,1,.2-0.88l1.67-1.71-6.61-11.2H166.8v9.53l3.39,3.39a0.76,0.76,0,0,1,.16.88,0.72,0.72,0,0,1-.72.48H148.11a0.72,0.72,0,0,1-.72-0.48,0.76,0.76,0,0,1,.16-0.88ZM166.8,40.81h11.88a5.32,5.32,0,0,0,3.9-1.63,5.24,5.24,0,0,0,1.63-3.9,5.58,5.58,0,0,0-5.54-5.54H166.8V40.81Z" style="fill:#fff"/><path d="M208.56,66.15V45.91L205.65,43a0.7,0.7,0,0,1,0-1.12l2.91-2.95V18.65l-3.39-3.39a0.78,0.78,0,0,1-.16-0.88,0.72,0.72,0,0,1,.72-0.48h51.92V32.56a0.75,0.75,0,0,1-.48.76,0.73,0.73,0,0,1-.88-0.2l-3.39-3.39H224.42v6.33h19l2.27-2.27a0.53,0.53,0,0,1,.92.4V50.61a0.53,0.53,0,0,1-.92.4l-2.27-2.27h-19v6.34h28.49l3.39-3.43a0.76,0.76,0,0,1,.88-0.16,0.75,0.75,0,0,1,.48.76V70.89H205.73a0.72,0.72,0,0,1-.72-0.48,0.76,0.76,0,0,1,.16-0.88Z" style="fill:#fff"/></svg>